<svg width="157" height="21" viewBox="0 0 157 21" fill="none" xmlns="http://www.w3.org/2000/svg">
<path d="M156.894 20.0761V0.872252H152.702L153.514 2.31453V20.0761H156.894ZM107.999 20.0761V0.872252H104.504C104.819 1.38708 105.082 1.93217 105.29 2.49952V14.3726L95.902 0.872675H91.7358L92.8706 2.56091V20.0761H95.5515V6.53934L104.994 20.0761H107.999ZM86.6871 17.0861V0.864208H82.4769L83.3497 2.31453V16.8829C82.4735 17.4578 81.4516 17.765 80.4068 17.7677C79.8323 17.7518 79.2665 17.6213 78.7422 17.3837C78.2178 17.1461 77.7452 16.8062 77.3515 16.3834C76.9567 15.9602 76.6484 15.4626 76.4444 14.9189C76.2404 14.3753 76.1446 13.7963 76.1626 13.2152V0.837538H71.9687L72.7727 2.28617V14.2405C72.7655 15.0549 72.9187 15.8625 73.2234 16.6165C73.5281 17.3705 73.9783 18.0558 74.5477 18.6325C75.1165 19.2082 75.7933 19.6635 76.5385 19.9718C77.2837 20.2801 78.0822 20.4353 78.8875 20.4283C81.3928 20.4283 82.8785 19.5452 85.0006 18.2803C85.612 17.9176 86.1961 17.5097 86.7479 17.0599M68.1793 0.872252H63.7675L64.2655 2.31453L60.3089 9.27107L55.5746 0.872252H51.5396L58.2031 12.4185V20.0765H61.593V12.3127L68.1793 0.872252ZM47.1542 20.0761V0.872252H42.9703L43.766 2.31453V8.77663H36.1496V0.872252H31.9658L32.7602 2.31453V20.0761H36.1496V11.4554H43.766V20.0765L47.1542 20.0761ZM120.855 0.864208H113.064L113.86 2.31453V20.0761H119.31C120.918 20.0815 122.496 19.6374 123.869 18.793C124.367 18.5199 124.856 18.1927 125.372 17.9099C126.719 17.0771 127.828 15.9065 128.594 14.5121C129.359 13.1176 129.754 11.5469 129.74 9.95263C129.756 8.76404 129.539 7.58398 129.102 6.48009C128.666 5.37621 128.018 4.3702 127.195 3.51974C126.373 2.6711 125.393 1.99547 124.31 1.53195C123.228 1.06843 122.066 0.826219 120.89 0.819336M123.512 16.8135C122.661 17.286 121.693 17.498 120.725 17.4235H117.319V3.48037H119.223C120.174 3.49557 121.113 3.70148 121.985 4.08613C122.857 4.47078 123.644 5.02651 124.301 5.72105C124.959 6.41663 125.475 7.23691 125.817 8.13459C126.16 9.03226 126.323 9.98956 126.298 10.9513C126.335 12.0916 126.099 13.2241 125.609 14.2524C125.12 15.2807 124.391 16.1742 123.486 16.8567M141.669 0.872252H138.001L138.613 2.31453L131.136 20.0761H135.119L134.595 18.6258L136.201 14.7879H143.818L146.046 20.0922H149.731L141.669 0.872252ZM137.302 12.2162L140.036 5.73587L142.761 12.2162H137.302ZM1.44413 6.48051L0.980469 7.69927H3.35661V15.4893H4.96474V7.69927H6.87764L7.33124 6.48008L1.44413 6.48051ZM14.5628 6.48051L14.9476 7.14344V10.1846H11.3658V6.48051H9.4089L9.76733 7.14344V15.4893H11.3658V11.4398H14.9472V15.4893H16.5277V6.48051H14.5628ZM18.8514 6.48051L19.2283 7.14344V15.4893H24.1277L24.5734 14.2592H20.8264V11.4398H24.1277L24.5734 10.2109H20.8264V7.69927H24.1277L24.5734 6.48008L18.8514 6.48051Z" fill="#111111"/>
</svg>
