<svg width="142" height="33" viewBox="0 0 142 33" fill="none" xmlns="http://www.w3.org/2000/svg">
<path d="M87.8215 12.4233C87.8215 12.4233 88.5145 13.1703 88.5145 13.9173H90.8995V18.4353H92.4655V8.65234H90.1975C90.1975 8.65234 90.8995 9.12034 90.8995 9.96634V12.4233H87.8125H87.8215Z" fill="#C66828"/>
<path d="M83.834 19.6055C83.834 19.6055 84.536 20.3255 84.536 21.0815H90.908V25.1765H92.474V19.6055H83.843H83.834Z" fill="#C66828"/>
<path d="M88.1632 17.742V15.474L85.6342 12.918C85.8502 12.018 85.9762 11.037 85.9762 10.002H83.7982C84.3922 10.317 84.4733 11.208 84.3293 12.036C83.8343 14.826 82.1693 16.932 80.5312 17.058L81.2153 18.462C82.7723 18.129 84.2213 16.68 85.1033 14.574L88.1722 17.742H88.1632Z" fill="#C66828"/>
<path d="M128.24 12.7023C128.24 12.7023 128.933 13.4493 128.933 14.1963H131.399V20.1903H132.965V8.65234H130.697C130.697 8.65234 131.399 9.12034 131.399 9.96634V12.7113H128.24V12.7023Z" fill="#C66828"/>
<path d="M128.789 19.119V16.851L125.441 13.485C125.657 12.585 125.783 11.325 125.783 10.29H123.605C124.199 10.605 124.28 11.784 124.136 12.603C123.641 15.393 121.85 17.481 120.338 17.625L121.094 18.993C122.561 18.561 124.163 17.094 124.91 15.132L128.789 19.119Z" fill="#C66828"/>
<path d="M133.919 24.9419L133.433 23.3849H126.737V20.5859H124.451C124.451 20.5859 125.153 20.9549 125.153 21.8999V24.9419H133.919Z" fill="#C66828"/>
<path d="M106.955 11.0737V15.4117V16.1497H114.785L114.326 14.6737H108.503V13.6117H112.814V12.1357H108.503V11.0737H114.2L113.741 9.59766H105.461C105.461 9.59766 106.064 10.2817 106.163 11.0737H106.964H106.955Z" fill="#C66828"/>
<path d="M106.578 22.0082H112.68V25.1762H114.246V20.5322H105.885C105.885 20.5322 106.587 21.2612 106.587 22.0082H106.578Z" fill="#C66828"/>
<path d="M116.774 17.5361H103.121C103.121 17.5361 103.724 18.2201 103.823 19.0121H117.233L116.774 17.5361Z" fill="#C66828"/>
<path d="M65.0151 16.2574L65.6811 17.6074C67.1211 17.0584 68.6511 16.2214 69.6321 14.7004L73.6371 17.7154L74.5641 16.5274L70.3071 13.2514C70.3341 13.1794 70.3521 13.1074 70.3791 13.0264H73.6641V11.5684H65.0961C65.0961 11.5684 65.7801 12.2974 65.7801 13.0264H68.7771C68.0841 14.8174 66.5721 15.6724 64.9971 16.2394L65.0151 16.2574Z" fill="#C66828"/>
<path d="M71.1435 9.6062L67.8135 7.9502V9.5882L71.1435 11.1722V9.6062Z" fill="#C66828"/>
<path d="M76.8142 20.5141L76.3552 19.0381H62.7021C62.7021 19.0381 63.3051 19.7221 63.4041 20.5141H68.9841V24.9331H70.5231V20.5141H76.8142Z" fill="#C66828"/>
<path d="M7.90973 23.142H16.3427V21.576H9.72773L13.1477 18.363C14.6867 16.896 16.1447 15.51 16.1447 13.386C16.1447 11.028 14.4887 9.49805 11.9237 9.49805C9.66473 9.49805 8.08973 10.659 7.59473 12.693L9.14273 13.035C9.52073 11.649 10.4207 10.938 11.8337 10.938C13.7147 10.938 14.3897 12.207 14.3897 13.395C14.3897 15.024 13.2017 16.185 11.5547 17.796L7.61273 21.567C7.61273 21.567 7.61273 21.576 7.61273 21.585L7.90973 23.142Z" fill="#C66828"/>
<path d="M24.1451 9.49805C21.4721 9.49805 19.8701 11.118 19.8701 13.827V19.011C19.8701 21.765 21.4271 23.349 24.1451 23.349C26.8631 23.349 28.4021 21.765 28.4021 19.011V13.827C28.4021 11.073 26.8541 9.49805 24.1451 9.49805ZM26.7551 19.011C26.7551 20.784 25.8011 21.792 24.1451 21.792C22.4891 21.792 21.5351 20.775 21.5351 19.011V13.827C21.5351 12.054 22.4891 11.046 24.1451 11.046C25.8011 11.046 26.7551 12.063 26.7551 13.827V19.011Z" fill="#C66828"/>
<path d="M32.2997 23.1423H40.7327V21.5763H34.1177L37.5377 18.3543C39.0857 16.8873 40.5347 15.5013 40.5347 13.3773C40.5347 11.0193 38.8787 9.48926 36.3137 9.48926C34.0457 9.48926 32.4707 10.6503 31.9757 12.6933L33.5237 13.0353C33.9017 11.6493 34.8017 10.9383 36.2147 10.9383C38.0957 10.9383 38.7707 12.2073 38.7707 13.3953C38.7707 15.0243 37.5827 16.1853 35.9357 17.7963L31.9937 21.5583C31.9937 21.5583 31.9937 21.5673 31.9937 21.5853L32.2907 23.1423H32.2997Z" fill="#C66828"/>
<path d="M43.8831 19.0381C43.8831 19.0381 43.8651 19.0651 43.8831 19.1551L44.1981 20.6941H49.6701H50.0391V23.1331H51.6501V20.6941H53.5311V19.2361H51.6501V15.5371H50.0391V19.2361H45.5301L50.1561 9.70508H48.4191L43.8921 19.0291L43.8831 19.0381Z" fill="#C66828"/>
</svg>
