<svg width="261" height="55" viewBox="0 0 261 55" fill="none" xmlns="http://www.w3.org/2000/svg">
<path d="M207.124 19.8268C207.124 19.8268 208.45 21.2135 208.45 22.6086H213.159V33.8026H216.142V12.2617H211.816C211.816 12.2617 213.159 13.1336 213.159 14.7114V19.8351H207.124V19.8268Z" fill="#C66828"/>
<path d="M208.161 31.7932V27.5664L201.769 21.2802C202.185 19.5945 202.415 17.2444 202.415 15.3096H198.258C199.397 15.8992 199.55 18.0914 199.27 19.6277C198.326 24.8344 194.892 28.729 192.011 28.9947L193.447 31.5441C196.261 30.7386 199.304 28.0065 200.74 24.3444L208.152 31.7766L208.161 31.7932Z" fill="#C66828"/>
<path d="M217.961 42.6546L217.026 39.7482H204.242V34.5332H199.873C199.873 34.5332 201.216 35.2224 201.216 36.9829V42.6546H217.961Z" fill="#C66828"/>
<path d="M243.36 16.7794L243.258 20.0512H235.378L234.996 16.7794H243.36ZM232.012 16.7711L232.675 22.7999H247.074L246.114 20.6159L246.573 14.0225H230.389C230.389 14.0225 231.825 15.1933 232.012 16.7711Z" fill="#C66828"/>
<path d="M247.421 40.0054H236.261V38.1038H246.291V30.9124H240.545V27.9728H252.555L251.671 25.2158H225.602C225.602 25.2158 226.758 26.4863 226.945 27.9728H237.612V30.9124H230.88C230.88 30.9124 232.223 32.2328 232.223 33.5531H243.333V35.4548H231.96C231.96 35.4548 233.303 36.3931 233.303 38.0955V42.6461H248.263L247.413 40.0054H247.421Z" fill="#C66828"/>
<path d="M13.8589 32.0426V19.8771H21.0499V17.1533H7.98535C7.98535 17.1533 9.31135 18.7311 9.31985 19.8771H10.8754V35.0487C11.0114 35.0487 11.1729 35.057 11.3684 35.057C13.6124 35.057 19.8344 34.5753 24.7644 29.7257L23.1409 27.3342C20.1489 30.5063 16.4344 31.644 13.8504 32.0509" fill="#C66828"/>
<path d="M27.6792 12.0293C27.6792 12.0293 29.0222 12.9012 29.0222 14.479V21.8198H22.2392C22.2392 21.8198 23.5822 23.2232 23.5822 24.6349H29.0137V42.8873H31.9972V12.0293H27.6707H27.6792Z" fill="#C66828"/>
<path d="M58.459 28.3471C58.459 29.6342 57.83 30.747 56.147 30.747C54.464 30.747 53.835 29.6342 53.835 28.3471V27.6329C53.835 26.3458 54.464 25.233 56.147 25.233C57.83 25.233 58.459 26.3458 58.459 27.6329V28.3471ZM61.1705 28.4218V27.5582C61.1705 24.7597 59.6235 22.4844 56.1385 22.4844C52.6535 22.4844 51.1065 24.7597 51.1065 27.5582V28.4218C51.1065 31.2203 52.6535 33.4956 56.1385 33.4956C59.6235 33.4956 61.1705 31.2286 61.1705 28.4218Z" fill="#C66828"/>
<path d="M52.9932 11.4316V14.4876L59.3682 17.4438V14.5208L52.9932 11.4316Z" fill="#C66828"/>
<path d="M73.8171 40.1298H61.0331V35.3633H56.6641C56.6641 35.3633 58.0071 36.0525 58.0071 37.813V43.0363H74.7521L73.8171 40.1298Z" fill="#C66828"/>
<path d="M50.9944 20.9562C50.8074 19.4781 49.6514 18.1992 49.6514 18.1992H61.2794V20.9562H51.0029H50.9944Z" fill="#C66828"/>
<path d="M63.4385 18.2078C63.4385 18.2078 64.62 19.5115 64.8155 21.0229H70.2555V22.8747L64.535 25.723V28.8537L70.2555 26.0053V34.0686H73.239V12.6357H68.9125C68.9125 12.6357 70.2555 13.5077 70.2555 15.0855V18.2078H63.4385Z" fill="#C66828"/>
<path d="M104.697 15.0855V21.8948H101.408V14.4294H97.0811C97.0811 14.4294 98.4241 15.3014 98.4241 16.8791V37.8055H101.408V24.6518H104.697V43.4855H107.681V12.6357H103.354C103.354 12.6357 104.697 13.5077 104.697 15.0855Z" fill="#C66828"/>
<path d="M81.917 17.751C81.917 17.751 83.0985 19.0547 83.294 20.5661H84.841V32.6402V35.5716C91.2075 35.3723 95.024 32.3662 96.9025 29.4681L94.9135 27.5249C93.5025 30.0577 90.9695 31.843 87.8245 32.3579V20.5744H94.9135V17.7593H81.9255L81.917 17.751Z" fill="#C66828"/>
<path d="M173.428 40.1221H160.644V33.8525H156.275C156.275 33.8525 157.618 34.5418 157.618 36.3023V43.0286H174.363L173.428 40.1221Z" fill="#C66828"/>
<path d="M156.929 19.2624C154.116 19.2624 153.121 21.2387 153.121 23.0822V23.3729C153.121 25.2247 154.124 27.1928 156.929 27.1928C159.734 27.1928 160.737 25.2164 160.737 23.3729V23.0822C160.737 21.2304 159.734 19.2624 156.929 19.2624ZM156.929 30.0079C152.994 30.0079 150.248 27.2841 150.248 23.3812V23.0905C150.248 19.1876 152.994 16.4639 156.929 16.4639C160.865 16.4639 163.61 19.1876 163.61 23.0905V23.3812C163.61 27.2841 160.865 30.0079 156.929 30.0079Z" fill="#C66828"/>
<path d="M169.79 15.0771V34.1683H172.774V12.6357H168.447C168.447 12.6357 169.79 13.5077 169.79 15.0855" fill="#C66828"/>
<path d="M135.246 12.627C135.246 12.627 136.589 13.4989 136.589 15.0767V20.0508H130.554C130.554 20.0508 131.897 21.4293 131.897 22.8659H136.589V30.8877H139.572V12.627H135.246Z" fill="#C66828"/>
<path d="M130.673 29.667V25.4402L126.364 21.1885C126.61 20.192 126.789 18.9547 126.899 17.7091H130.665V14.9854H118.153C118.153 14.9854 119.47 16.3472 119.47 17.7091H124.111C124.069 18.2987 123.984 18.8883 123.873 19.536C122.93 24.7427 119.496 28.6373 116.614 28.903L118.051 31.4524C120.864 30.6469 123.907 27.9148 125.344 24.2527L130.673 29.6587V29.667Z" fill="#C66828"/>
<path d="M124.426 35.8292H136.59V43.4773H139.573V33.0723H123.083C123.083 33.0723 124.426 34.4092 124.426 35.8292Z" fill="#C66828"/>
</svg>
