<svg width="216" height="44" viewBox="0 0 216 44" fill="none" xmlns="http://www.w3.org/2000/svg">
<path d="M130.428 16.5641C130.428 16.5641 131.352 17.5601 131.352 18.5561H134.532V24.5801H136.62V11.5361H133.596C133.596 11.5361 134.532 12.1601 134.532 13.2881V16.5641H130.416H130.428Z" fill="#C66828"/>
<path d="M125.112 26.1401C125.112 26.1401 126.048 27.1001 126.048 28.1081H134.544V33.5681H136.632V26.1401H125.124H125.112Z" fill="#C66828"/>
<path d="M130.884 23.6559V20.6319L127.512 17.2239C127.8 16.0239 127.968 14.7159 127.968 13.3359H125.064C125.856 13.7559 125.964 14.9439 125.772 16.0479C125.112 19.7679 122.892 22.5759 120.708 22.7439L121.62 24.6159C123.696 24.1719 125.628 22.2399 126.804 19.4319L130.896 23.6559H130.884Z" fill="#C66828"/>
<path d="M184.321 16.9361C184.321 16.9361 185.245 17.9321 185.245 18.9281H188.533V26.9201H190.621V11.5361H187.597C187.597 11.5361 188.533 12.1601 188.533 13.2881V16.9481H184.321V16.9361Z" fill="#C66828"/>
<path d="M185.052 25.4922V22.4682L180.588 17.9802C180.876 16.7802 181.044 15.1002 181.044 13.7202H178.14C178.932 14.1402 179.04 15.7122 178.848 16.8042C178.188 20.5242 175.8 23.3082 173.784 23.5002L174.792 25.3242C176.748 24.7482 178.884 22.7922 179.88 20.1762L185.052 25.4922Z" fill="#C66828"/>
<path d="M191.893 33.2562L191.245 31.1802H182.317V27.4482H179.269C179.269 27.4482 180.205 27.9402 180.205 29.2002V33.2562H191.893Z" fill="#C66828"/>
<path d="M155.939 14.7639V20.5479V21.5319H166.379L165.767 19.5639H158.003V18.1479H163.751V16.1799H158.003V14.7639H165.599L164.987 12.7959H153.947C153.947 12.7959 154.751 13.7079 154.883 14.7639H155.951H155.939Z" fill="#C66828"/>
<path d="M155.436 29.344H163.572V33.568H165.66V27.376H154.512C154.512 27.376 155.448 28.348 155.448 29.344H155.436Z" fill="#C66828"/>
<path d="M169.032 23.3799H150.828C150.828 23.3799 151.632 24.2919 151.764 25.3479H169.644L169.032 23.3799Z" fill="#C66828"/>
<path d="M100.02 21.6758L100.908 23.4758C102.828 22.7438 104.868 21.6278 106.176 19.5998L111.516 23.6198L112.752 22.0358L107.076 17.6678C107.112 17.5718 107.136 17.4758 107.172 17.3678H111.552V15.4238H100.128C100.128 15.4238 101.04 16.3958 101.04 17.3678H105.036C104.112 19.7558 102.096 20.8958 99.9961 21.6518L100.02 21.6758Z" fill="#C66828"/>
<path d="M108.192 12.8081L103.752 10.6001V12.7841L108.192 14.8961V12.8081Z" fill="#C66828"/>
<path d="M115.753 27.3523L115.141 25.3843H96.9365C96.9365 25.3843 97.7405 26.2963 97.8725 27.3523H105.313V33.2443H107.365V27.3523H115.753Z" fill="#C66828"/>
<path d="M23.88 30.8556H35.124V28.7676H26.304L30.864 24.4836C32.916 22.5276 34.86 20.6796 34.86 17.8476C34.86 14.7036 32.652 12.6636 29.232 12.6636C26.22 12.6636 24.12 14.2116 23.46 16.9236L25.524 17.3796C26.028 15.5316 27.228 14.5836 29.112 14.5836C31.62 14.5836 32.52 16.2756 32.52 17.8596C32.52 20.0316 30.936 21.5796 28.74 23.7276L23.484 28.7556C23.484 28.7556 23.484 28.7676 23.484 28.7796L23.88 30.8556Z" fill="#C66828"/>
<path d="M45.5271 12.6641C41.9631 12.6641 39.8271 14.8241 39.8271 18.4361V25.3481C39.8271 29.0201 41.9031 31.1321 45.5271 31.1321C49.1511 31.1321 51.2031 29.0201 51.2031 25.3481V18.4361C51.2031 14.7641 49.1391 12.6641 45.5271 12.6641ZM49.0071 25.3481C49.0071 27.7121 47.7351 29.0561 45.5271 29.0561C43.3191 29.0561 42.0471 27.7001 42.0471 25.3481V18.4361C42.0471 16.0721 43.3191 14.7281 45.5271 14.7281C47.7351 14.7281 49.0071 16.0841 49.0071 18.4361V25.3481Z" fill="#C66828"/>
<path d="M56.4 30.8559H67.644V28.7679H58.824L63.384 24.4719C65.448 22.5159 67.38 20.6679 67.38 17.8359C67.38 14.6919 65.172 12.6519 61.752 12.6519C58.728 12.6519 56.628 14.1999 55.968 16.9239L58.032 17.3799C58.536 15.5319 59.736 14.5839 61.62 14.5839C64.128 14.5839 65.028 16.2759 65.028 17.8599C65.028 20.0319 63.444 21.5799 61.248 23.7279L55.992 28.7439C55.992 28.7439 55.992 28.7559 55.992 28.7799L56.388 30.8559H56.4Z" fill="#C66828"/>
<path d="M71.8444 25.3839C71.8444 25.3839 71.8204 25.4199 71.8444 25.5399L72.2644 27.5919H79.5604H80.0524V30.8439H82.2004V27.5919H84.7084V25.6479H82.2004V20.7159H80.0524V25.6479H74.0404L80.2084 12.9399H77.8924L71.8564 25.3719L71.8444 25.3839Z" fill="#C66828"/>
</svg>
