<svg width="408" height="79" viewBox="0 0 408 79" fill="none" xmlns="http://www.w3.org/2000/svg">
<path d="M312.175 28.4784C312.175 28.4784 314.047 30.4704 314.047 32.4742H320.695V48.5528H324.907V17.6123H318.799C318.799 17.6123 320.695 18.8647 320.695 21.131V28.4904H312.175V28.4784Z" fill="#C66828"/>
<path d="M313.638 45.6663V39.595L304.614 30.5658C305.202 28.1444 305.526 24.7689 305.526 21.9897H299.658C301.266 22.8366 301.482 25.9855 301.086 28.1922C299.754 35.6708 294.906 41.2649 290.838 41.6466L292.866 45.3084C296.838 44.1514 301.134 40.2272 303.162 34.9671L313.626 45.6424L313.638 45.6663Z" fill="#C66828"/>
<path d="M327.474 61.2678L326.154 57.0931H308.106V49.6025H301.938C301.938 49.6025 303.834 50.5925 303.834 53.1212V61.2678H327.474Z" fill="#C66828"/>
<path d="M363.331 24.1006L363.187 28.8001H352.063L351.523 24.1006H363.331ZM347.311 24.0887L348.247 32.7482H368.575L367.219 29.6112L367.867 20.1406H345.019C345.019 20.1406 347.047 21.8224 347.311 24.0887Z" fill="#C66828"/>
<path d="M369.065 57.4625H353.309V54.731H367.469V44.4016H359.357V40.1792H376.313L375.065 36.2192H338.261C338.261 36.2192 339.893 38.0442 340.157 40.1792H355.217V44.4016H345.714C345.714 44.4016 347.609 46.2982 347.609 48.1947H363.293V50.9261H347.237C347.237 50.9261 349.133 52.2739 349.133 54.7191V61.2555H370.253L369.053 57.4625H369.065Z" fill="#C66828"/>
<path d="M39.3301 46.0241V28.55H49.4821V24.6377H31.0381C31.0381 24.6377 32.9101 26.904 32.9221 28.55H35.1181V50.3419C35.3101 50.3419 35.5381 50.3538 35.8141 50.3538C38.9821 50.3538 47.7661 49.662 54.7261 42.6963L52.4341 39.2611C48.2101 43.8175 42.9661 45.4516 39.3181 46.036" fill="#C66828"/>
<path d="M58.8411 17.2783C58.8411 17.2783 60.7371 18.5307 60.7371 20.797V31.3411H51.1611C51.1611 31.3411 53.0571 33.3569 53.0571 35.3846H60.7251V61.6017H64.9371V17.2783H58.8291H58.8411Z" fill="#C66828"/>
<path d="M102.295 40.7164C102.295 42.5652 101.407 44.1635 99.031 44.1635C96.655 44.1635 95.767 42.5652 95.767 40.7164V39.6906C95.767 37.8418 96.655 36.2435 99.031 36.2435C101.407 36.2435 102.295 37.8418 102.295 39.6906V40.7164ZM106.123 40.8237V39.5832C106.123 35.5636 103.939 32.2954 99.019 32.2954C94.099 32.2954 91.915 35.5636 91.915 39.5832V40.8237C91.915 44.8434 94.099 48.1116 99.019 48.1116C103.939 48.1116 106.123 44.8553 106.123 40.8237Z" fill="#C66828"/>
<path d="M94.5781 16.4199V20.8093L103.578 25.0556V20.857L94.5781 16.4199Z" fill="#C66828"/>
<path d="M123.978 57.6414H105.93V50.7949H99.7617C99.7617 50.7949 101.658 51.7849 101.658 54.3136V61.8161H125.298L123.978 57.6414Z" fill="#C66828"/>
<path d="M91.7573 30.1006C91.4933 27.9775 89.8613 26.1406 89.8613 26.1406H106.277V30.1006H91.7693H91.7573Z" fill="#C66828"/>
<path d="M109.325 26.1524C109.325 26.1524 110.993 28.0251 111.269 30.1959H118.949V32.8558L110.873 36.947V41.4437L118.949 37.3525V48.9343H123.161V18.1489H117.053C117.053 18.1489 118.949 19.4013 118.949 21.6676V26.1524H109.325Z" fill="#C66828"/>
<path d="M167.573 21.6676V31.4483H162.929V20.7253H156.821C156.821 20.7253 158.717 21.9777 158.717 24.244V54.3018H162.929V35.4083H167.573V62.4604H171.785V18.1489H165.677C165.677 18.1489 167.573 19.4013 167.573 21.6676Z" fill="#C66828"/>
<path d="M135.413 25.4966C135.413 25.4966 137.081 27.3692 137.357 29.5401H139.541V46.883V51.0934C148.529 50.8072 153.917 46.4894 156.569 42.3266L153.761 39.5355C151.769 43.1734 148.193 45.7379 143.753 46.4774V29.552H153.761V25.5085H135.425L135.413 25.4966Z" fill="#C66828"/>
<path d="M264.606 57.6299H246.558V48.6245H240.39C240.39 48.6245 242.286 49.6145 242.286 52.1432V61.8046H265.926L264.606 57.6299Z" fill="#C66828"/>
<path d="M241.313 27.6676C237.341 27.6676 235.937 30.5064 235.937 33.1543V33.5718C235.937 36.2317 237.353 39.0586 241.313 39.0586C245.273 39.0586 246.689 36.2198 246.689 33.5718V33.1543C246.689 30.4945 245.273 27.6676 241.313 27.6676ZM241.313 43.102C235.757 43.102 231.881 39.1898 231.881 33.5837V33.1663C231.881 27.5602 235.757 23.6479 241.313 23.6479C246.869 23.6479 250.745 27.5602 250.745 33.1663V33.5837C250.745 39.1898 246.869 43.102 241.313 43.102Z" fill="#C66828"/>
<path d="M259.469 21.6557V49.0775H263.681V18.1489H257.573C257.573 18.1489 259.469 19.4013 259.469 21.6676" fill="#C66828"/>
<path d="M210.701 18.1372C210.701 18.1372 212.597 19.3896 212.597 21.6559V28.8006H204.077C204.077 28.8006 205.973 30.7806 205.973 32.8441H212.597V44.3662H216.809V18.1372H210.701Z" fill="#C66828"/>
<path d="M204.246 42.6131V36.5419L198.162 30.4349C198.51 29.0036 198.762 27.2263 198.918 25.4372H204.234V21.5249H186.57C186.57 21.5249 188.43 23.481 188.43 25.4372H194.982C194.922 26.2841 194.802 27.1309 194.646 28.0613C193.314 35.54 188.466 41.1341 184.398 41.5157L186.426 45.1776C190.398 44.0206 194.694 40.0963 196.722 34.8362L204.246 42.6012V42.6131Z" fill="#C66828"/>
<path d="M195.425 51.4634H212.597V62.4488H216.809V47.5034H193.529C193.529 47.5034 195.425 49.4238 195.425 51.4634Z" fill="#C66828"/>
</svg>
